<svg width="0" height="0" class="hidden">
  <symbol fill="none" xmlns="http://www.w3.org/2000/svg" viewBox="0 0 24 24" id="Calling">
    <g id="Iconly/Two-tone/Calling">
      <g id="Calling">
        <path id="Stroke 1" opacity="0.4" d="M14.353 2.5C18.054 2.911 20.978 5.831 21.393 9.532" stroke="#FF5722" stroke-width="1.5" stroke-linecap="round" stroke-linejoin="round"></path>
        <path id="Stroke 3" opacity="0.4" d="M14.353 6.04297C16.124 6.38697 17.508 7.77197 17.853 9.54297" stroke="#FF5722" stroke-width="1.5" stroke-linecap="round" stroke-linejoin="round"></path>
        <path id="Stroke 5" fill-rule="evenodd" clip-rule="evenodd" d="M11.0315 12.4724C15.0205 16.4604 15.9254 11.8467 18.4653 14.3848C20.9138 16.8328 22.3222 17.3232 19.2188 20.4247C18.8302 20.737 16.3613 24.4943 7.68447 15.8197C-0.993406 7.144 2.76157 4.67244 3.07394 4.28395C6.18377 1.17385 6.66682 2.58938 9.11539 5.03733C11.6541 7.5765 7.04254 8.48441 11.0315 12.4724Z" stroke="#FF5722" stroke-width="1.5" stroke-linecap="round" stroke-linejoin="round"></path>
      </g>
    </g>
  </symbol>
  <symbol fill="none" xmlns="http://www.w3.org/2000/svg" viewBox="0 0 26 30" id="Location">
    <g filter="url(#filter0_d_16162_813)">
      <path fill-rule="evenodd" clip-rule="evenodd" d="M5.23914 10.3912C5.25354 6.15065 8.7029 2.72465 12.9435 2.73906C17.1841 2.75347 20.6101 6.20282 20.5957 10.4434V10.5304C20.5435 13.2869 19.0044 15.8347 17.1174 17.826C16.0382 18.9466 14.8331 19.9387 13.5261 20.7825C13.1766 21.0848 12.6582 21.0848 12.3087 20.7825C10.3602 19.5143 8.65007 17.9131 7.25653 16.0521C6.01449 14.4293 5.3093 12.4597 5.23914 10.4173L5.23914 10.3912Z" stroke="#FF5722" stroke-width="1.5" stroke-linecap="round" stroke-linejoin="round" shape-rendering="crispEdges"></path>
    </g>
    <circle opacity="0.4" cx="12.9174" cy="10.539" r="2.46087" stroke="#FF5722" stroke-width="1.5" stroke-linecap="round" stroke-linejoin="round"></circle>
    <defs>
      <filter id="filter0_d_16162_813" x="0.489136" y="1.98901" width="24.8566" height="27.7703" filterUnits="userSpaceOnUse" color-interpolation-filters="sRGB">
        <feFlood flood-opacity="0" result="BackgroundImageFix"></feFlood>
        <feColorMatrix in="SourceAlpha" type="matrix" values="0 0 0 0 0 0 0 0 0 0 0 0 0 0 0 0 0 0 127 0" result="hardAlpha"></feColorMatrix>
        <feOffset dy="4"></feOffset>
        <feGaussianBlur stdDeviation="2"></feGaussianBlur>
        <feComposite in2="hardAlpha" operator="out"></feComposite>
        <feColorMatrix type="matrix" values="0 0 0 0 0 0 0 0 0 0 0 0 0 0 0 0 0 0 0.25 0"></feColorMatrix>
        <feBlend mode="normal" in2="BackgroundImageFix" result="effect1_dropShadow_16162_813"></feBlend>
        <feBlend mode="normal" in="SourceGraphic" in2="effect1_dropShadow_16162_813" result="shape"></feBlend>
      </filter>
    </defs>
  </symbol>
  <symbol fill="none" xmlns="http://www.w3.org/2000/svg" viewBox="0 0 24 24" id="Message">
    <path opacity="0.4" d="M17.2677 8.56104L13.0023 11.9953C12.1951 12.6282 11.0635 12.6282 10.2563 11.9953L5.95422 8.56104" stroke="#FF5722" stroke-width="1.5" stroke-linecap="round" stroke-linejoin="round"></path>
    <path fill-rule="evenodd" clip-rule="evenodd" d="M6.88787 3H16.3158C17.6752 3.01525 18.969 3.58993 19.896 4.5902C20.823 5.59048 21.3022 6.92903 21.222 8.29412V14.822C21.3022 16.1871 20.823 17.5256 19.896 18.5259C18.969 19.5262 17.6752 20.1009 16.3158 20.1161H6.88787C3.96796 20.1161 2 17.7407 2 14.822V8.29412C2 5.37545 3.96796 3 6.88787 3Z" stroke="#FF5722" stroke-width="1.5" stroke-linecap="round" stroke-linejoin="round"></path>
  </symbol>
  <symbol fill="none" xmlns="http://www.w3.org/2000/svg" viewBox="0 0 26 22" id="twitter">
    <path d="M26 2.93704C25.043 3.36204 24.015 3.64804 22.936 3.77704C24.038 3.11704 24.883 2.07204 25.281 0.826035C24.251 1.43704 23.109 1.88104 21.893 2.12104C20.92 1.08404 19.534 0.436035 18 0.436035C15.054 0.436035 12.666 2.82504 12.666 5.77004C12.666 6.18804 12.714 6.59603 12.804 6.98503C8.37102 6.76303 4.44102 4.63903 1.80902 1.41104C1.35102 2.19904 1.08802 3.11504 1.08802 4.09404C1.08802 5.94404 2.02902 7.57704 3.46002 8.53304C2.58602 8.50504 1.76302 8.26504 1.04402 7.86604C1.04402 7.88904 1.04402 7.91003 1.04402 7.93303C1.04402 10.518 2.88202 12.674 5.32302 13.163C4.87602 13.285 4.40402 13.35 3.91702 13.35C3.57402 13.35 3.23902 13.316 2.91402 13.255C3.59302 15.374 5.56302 16.917 7.89702 16.96C6.07202 18.391 3.77202 19.244 1.27202 19.244C0.842024 19.244 0.417023 19.219 -0.000976562 19.169C2.36002 20.682 5.16302 21.565 8.17602 21.565C17.988 21.565 23.352 13.437 23.352 6.38803C23.352 6.15703 23.347 5.92704 23.337 5.69804C24.38 4.94504 25.285 4.00604 26 2.93704Z" fill="#FF5722"></path>
  </symbol>
  <symbol fill="none" xmlns="http://www.w3.org/2000/svg" viewBox="0 0 22 22" id="linkedin">
    <path d="M20 0H2C0.895 0 0 0.895 0 2V20C0 21.105 0.895 22 2 22H20C21.105 22 22 21.105 22 20V2C22 0.895 21.105 0 20 0ZM6.954 18H4.004V8.508H6.954V18ZM5.449 7.151C4.498 7.151 3.729 6.38 3.729 5.431C3.729 4.482 4.499 3.712 5.449 3.712C6.397 3.712 7.168 4.483 7.168 5.431C7.168 6.38 6.397 7.151 5.449 7.151ZM18.004 18H15.056V13.384C15.056 12.283 15.036 10.867 13.523 10.867C11.988 10.867 11.752 12.066 11.752 13.304V18H8.804V8.508H11.634V9.805H11.674C12.068 9.059 13.03 8.272 14.465 8.272C17.452 8.272 18.004 10.238 18.004 12.794V18V18Z" fill="#FF5722"></path>
  </symbol>
  <symbol fill="none" xmlns="http://www.w3.org/2000/svg" viewBox="0 0 24 24" id="telegram">
    <g clip-path="url(#clip0_37740_3920)">
      <path d="M11.944 3.26667e-05C8.77112 0.0148396 5.73324 1.28566 3.4949 3.53449C1.25656 5.78332 -3.4549e-05 8.82711 7.12435e-10 12C7.12441e-10 15.1826 1.26428 18.2349 3.51472 20.4853C5.76516 22.7357 8.8174 24 12 24C15.1826 24 18.2348 22.7357 20.4853 20.4853C22.7357 18.2349 24 15.1826 24 12C24 8.81743 22.7357 5.76519 20.4853 3.51475C18.2348 1.26431 15.1826 3.26667e-05 12 3.26667e-05C11.9813 -1.08889e-05 11.9627 -1.08889e-05 11.944 3.26667e-05V3.26667e-05ZM16.906 7.22403C17.006 7.22203 17.227 7.24703 17.371 7.36403C17.4667 7.44713 17.5277 7.56311 17.542 7.68903C17.558 7.78203 17.578 7.99503 17.562 8.16103C17.382 10.059 16.6 14.663 16.202 16.788C16.034 17.688 15.703 17.989 15.382 18.018C14.686 18.083 14.157 17.558 13.482 17.116C12.426 16.423 11.829 15.992 10.804 15.316C9.619 14.536 10.387 14.106 11.062 13.406C11.239 13.222 14.309 10.429 14.369 10.176C14.376 10.144 14.383 10.026 14.313 9.96403C14.243 9.90203 14.139 9.92303 14.064 9.94003C13.958 9.96403 12.271 11.08 9.003 13.285C8.523 13.615 8.09 13.775 7.701 13.765C7.273 13.757 6.449 13.524 5.836 13.325C5.084 13.08 4.487 12.951 4.539 12.536C4.566 12.32 4.864 12.099 5.432 11.873C8.93 10.349 11.262 9.34403 12.43 8.85903C15.762 7.47303 16.455 7.23203 16.906 7.22403V7.22403Z" fill="#FF5722"></path>
    </g>
    <defs>
      <clipPath id="clip0_37740_3920">
        <rect width="24" height="24" fill="white"></rect>
      </clipPath>
    </defs>
  </symbol>
</svg>
